# Blender v2.79 (sub 0) OBJ File: 'block_slope.blend'
# www.blender.org
mtllib block_slope.mtl
o Cube
v 1.000000 -0.500000 -1.000000
v 1.000000 -0.500000 1.000000
v -1.000000 -0.500000 1.000000
v -1.000000 -0.500000 -1.000000
v 1.000000 0.500000 -0.999999
v 0.999999 0.500000 1.000001
v -1.000000 0.500000 1.000000
vn 0.0000 -1.0000 0.0000
vn 0.0000 1.0000 0.0000
vn 1.0000 0.0000 0.0000
vn -0.0000 -0.0000 1.0000
vn -0.4082 0.8165 -0.4082
vn -1.0000 -0.0000 -0.0000
vn 0.0000 0.0000 -1.0000
usemtl Material
s off
f 1//1 2//1 3//1 4//1
f 6//2 5//2 7//2
f 1//3 5//3 6//3 2//3
f 2//4 6//4 7//4 3//4
f 5//5 4//5 7//5
f 4//6 3//6 7//6
f 4//7 5//7 1//7
