# Blender v2.79 (sub 0) OBJ File: 'tree.blend'
# www.blender.org
mtllib tree.mtl
o Cube.001
v -0.750000 1.000000 0.750000
v -0.750000 1.000000 -0.750000
v 0.750000 1.000000 0.750000
v 0.750000 1.000000 -0.750000
v 0.000000 5.000000 -0.000000
vn 0.0000 -1.0000 0.0000
vn 0.0000 0.1843 0.9829
vn -0.9829 0.1843 0.0000
vn 0.0000 0.1843 -0.9829
vn 0.9829 0.1843 0.0000
usemtl Material.001
s off
f 2//1 4//1 3//1 1//1
f 5//2 1//2 3//2
f 1//3 5//3 2//3
f 2//4 5//4 4//4
f 3//5 4//5 5//5
o Cube
v 0.250000 0.000000 -0.250000
v 0.250000 0.000000 0.250000
v -0.250000 0.000000 0.250000
v -0.250000 0.000000 -0.250000
v 0.250000 2.000000 -0.250000
v 0.250000 2.000000 0.250000
v -0.250000 2.000000 0.250000
v -0.250000 2.000000 -0.250000
vn 0.0000 -1.0000 0.0000
vn 0.0000 1.0000 0.0000
vn 1.0000 0.0000 0.0000
vn -0.0000 -0.0000 1.0000
vn -1.0000 -0.0000 -0.0000
vn 0.0000 0.0000 -1.0000
usemtl Material
s off
f 6//6 7//6 8//6 9//6
f 10//7 13//7 12//7 11//7
f 6//8 10//8 11//8 7//8
f 7//9 11//9 12//9 8//9
f 8//10 12//10 13//10 9//10
f 10//11 6//11 9//11 13//11
